<?xml version="1.0" encoding="UTF-8"?>
<svg id="Layer_1" xmlns="http://www.w3.org/2000/svg" version="1.1" viewBox="0 0 259.2 60.48">
  <!-- Generator: Adobe Illustrator 30.3.0, SVG Export Plug-In . SVG Version: 2.1.3 Build 182)  -->
  <defs>
    <style>
      .st0 {
        fill: #656565;
      }

      .st1 {
        display: none;
        fill: #fff;
      }

      .st2 {
        fill: #bd4144;
      }
    </style>
  </defs>
  <path class="st1" d="M0,60.48V0h259.2v60.48H0ZM248.63,7.18c1.16,0,1.43-.68,1.46-1.34.02-.58-.41-1.32-1.28-1.32H6.07c-.87,0-1.29.74-1.29,1.33s.41,1.33,1.29,1.33h242.56ZM253.54,4.58c-.8.2-1.19,1.01-.98,1.66s.99,1.07,1.63.86,1.07-.98.88-1.63c-.16-.53-.92-1.04-1.52-.89ZM45.95,44.98c.18-3.09.09-5.98-.03-8.99-.03-.7-.36-1.56-.64-2.24-.81-1.98.62-3.23.65-4.71.06-3.44.35-6.8-.12-10.21s-3.23-5.84-6.29-6.87l-31.54-.06c-.67,0-2.1-.18-2.23.83v39.34c.01,1.02.9,1.22,1.7,1.22l30.42-.02c3.98,0,7.82-3.92,8.08-8.3ZM132.03,53.3c.7,0,1.29-.5,1.29-1.23V12.95c0-.62-.64-1.08-1.16-1.08l-6.31.05c-.35,0-.98.15-1.18.38-.16.19-.23.73-.22,1.09l.06,22.7v2.33c0,.21-.52.82-.7.72l-.79-.43-6.54-10.2-8.81-13.46c-.76-1.17-2.28-2.72-3.66-2.93-2.81-.42-5.51-.06-8.31-.27-.95-.07-1.89-.02-2.62.73l.04,39.08c0,1,.71,1.64,1.6,1.64l5.77.02c.89,0,1.62-.52,1.61-1.5l-.06-24.12c0-.52.16-1.49.58-1.52,1.37.25,1.75,1.5,2.42,2.53l12.02,18.56,3.05,4.18c1.01,1.39,2.87,1.85,4.56,1.85h7.36ZM242.3,51.73c0,1.13.46,1.63,1.57,1.64h5.77c.4.01,1.16-.21,1.33-.5.15-.25.2-.83.2-1.25v-15.15c0-.92-.32-1.84-.74-2.63-1.05-1.96.71-3.03.68-4.67l-.16-10.52c-.04-2.48-4.26-6.58-6.67-6.6l-26.7-.2c-.62,0-1.32.03-1.73.3s-.52,1.12-.5,1.68l.17,7.93v21.01s-.15,9.08-.15,9.08c-.02,1,.68,1.52,1.62,1.51l5.79-.04c.35,0,.99-.18,1.19-.4s.27-.89.27-1.29l-.03-12.66c0-.98.79-1.84,1.8-1.84l14.43-.03c.99,0,1.91.92,1.9,1.91l-.05,12.71ZM76.6,46.66c1.55,0,2.26.56,2.83,1.86l1.43,3.23c.57,1.28,1.21,1.65,2.61,1.64l6.68-.04c.22,0,.75-.31.83-.51.06-.16.02-.57-.08-.79l-16.78-36.7c-.7-1.53-2.22-2.87-3.7-3.25-1.61-.41-3.46-.38-5,.09s-2.75,1.97-3.45,3.51l-13.77,30.19-3.06,6.68c.15.5,1.11.79,1.57.79h6.52c1,0,1.62-.51,2.03-1.39l2.04-4.44c.2-.43,1.21-.86,1.72-.86l17.58-.02ZM146.39,44.04c-1.04,0-1.97-.89-1.97-1.79v-19.5c0-1.02.94-1.87,2.01-1.87l23.06.02c.48,0,1.12-.1,1.34-.36.18-.22.38-.87.38-1.15l.13-6.19c0-.31-.22-.94-.48-1.1s-.93-.25-1.35-.25l-27.5.23c-2.77.18-4.8,3.1-5.87,5.3v29.94c1.31,3.77,4.68,5.94,8.7,5.94h25.14c.7,0,1.37-.61,1.35-1.3l-.14-6.36c0-.39-.21-1.08-.46-1.3-.22-.18-.82-.28-1.22-.28h-23.13ZM213.12,47l.05-28.82c-.74-3.05-3.02-5.32-5.98-6.28l-27.6.11c-2.1,0-4.21,2.42-5.09,4.05s-1.25,3.48-1.25,5.27l.04,22.9c0,4.5,3.29,8.99,7.99,9.01l24.22.07c3.31,0,6.57-3,7.63-6.32Z"/>
  <path class="st0" d="M45.95,44.98c-.26,4.38-4.1,8.29-8.08,8.3l-30.42.02c-.81,0-1.69-.21-1.69-1.22V12.72c.11-1.01,1.54-.83,2.21-.83l31.54.06c3.06,1.04,5.84,3.6,6.29,6.87s.18,6.78.12,10.21c-.02,1.47-1.46,2.72-.65,4.71.28.68.61,1.54.64,2.24.12,3.01.22,5.9.03,8.99ZM35.56,27.77c1.07-.3,1.6-1.01,1.6-1.94v-2.9c-.01-1.09-.79-2.06-1.98-2.06h-18.63c-1.17-.01-1.91.64-1.91,1.86v3.37c.01.72.52,1.68,1.44,1.68h19.47ZM35.33,44.21c.93,0,1.78-.96,1.78-1.66l.02-3.81c0-.76-.81-1.69-1.66-1.69l-18.44-.02c-.62,0-1.46.09-1.81.43-.28.28-.58,1.04-.57,1.45v3.43c.01.94.6,1.86,1.69,1.86h18.99Z"/>
  <path class="st0" d="M132.03,53.3h-7.36c-1.69-.01-3.55-.48-4.56-1.86l-3.05-4.18-12.02-18.56c-.66-1.03-1.05-2.28-2.42-2.53-.42.03-.58,1-.58,1.52l.06,24.12c0,.98-.73,1.5-1.61,1.5l-5.77-.02c-.89,0-1.6-.64-1.6-1.64l-.04-39.08c.73-.75,1.66-.8,2.62-.73,2.8.22,5.5-.14,8.31.27,1.38.21,2.9,1.76,3.66,2.93l8.81,13.46,6.54,10.2.79.43c.18.1.7-.52.7-.72v-2.33s-.06-22.7-.06-22.7c0-.36.06-.91.22-1.09.2-.22.83-.37,1.18-.38l6.31-.05c.51,0,1.16.45,1.16,1.08v39.12c0,.74-.58,1.24-1.29,1.23Z"/>
  <path class="st0" d="M213.12,47c-1.05,3.32-4.32,6.33-7.63,6.32l-24.22-.07c-4.7-.01-7.98-4.5-7.99-9.01l-.04-22.9c0-1.79.35-3.62,1.25-5.27s2.99-4.05,5.09-4.05l27.6-.11c2.96.96,5.24,3.23,5.98,6.28l-.05,28.82ZM202.93,44.19c1.07,0,1.78-1.09,1.78-1.93v-19.49c0-.91-.76-1.87-1.72-1.87h-18.59c-1.2,0-2.2.43-2.2,1.84v19.57c0,.96.75,1.88,1.77,1.88h18.95Z"/>
  <path class="st0" d="M242.3,51.73l.05-12.71c0-.99-.92-1.91-1.9-1.91l-14.43.03c-1.01,0-1.8.86-1.8,1.84l.03,12.66c0,.4-.06,1.07-.27,1.29s-.84.39-1.19.4l-5.79.04c-.94,0-1.64-.51-1.62-1.51l.17-9.08v-21.01s-.18-7.93-.18-7.93c-.01-.56.07-1.4.5-1.68s1.11-.3,1.73-.3l26.7.2c2.41.02,6.63,4.12,6.67,6.6l.16,10.52c.02,1.64-1.74,2.7-.68,4.67.42.79.73,1.7.73,2.63v15.15c0,.41-.05,1-.2,1.25-.18.29-.94.51-1.33.51h-5.77c-1.11-.02-1.57-.52-1.57-1.65ZM240.54,27.9c1.07-.13,1.6-.82,1.81-1.73l-.05-3.38c-.01-1.03-1.06-1.76-2.05-1.76h-14.14c-1.12.01-1.88.84-1.89,1.93v3.08c-.01,1.1.82,1.85,1.91,1.85h14.4Z"/>
  <path class="st0" d="M76.6,46.66l-17.58.02c-.51,0-1.52.43-1.72.86l-2.04,4.44c-.4.88-1.03,1.4-2.03,1.39h-6.52c-.45,0-1.42-.3-1.57-.8l3.06-6.68,13.77-30.19c.7-1.54,1.84-3.02,3.45-3.51s3.39-.5,5-.09c1.47.38,3,1.72,3.7,3.25l16.78,36.7c.1.22.14.63.08.79-.08.2-.61.51-.83.51l-6.68.04c-1.4,0-2.04-.35-2.61-1.64l-1.43-3.23c-.58-1.3-1.28-1.86-2.83-1.86ZM73.51,39.88c.86,0,1.57-.77,1.23-1.57l-1.14-2.63-4.26-9.66c-.2-.45-.7-.9-1.13-.93-.36-.03-1.09.41-1.26.78l-3.33,7.69-2.17,4.72c-.3.66.37,1.53,1.02,1.54l11.04.07Z"/>
  <path class="st0" d="M146.39,44.04h23.13c.4,0,1,.1,1.22.28.26.21.46.91.46,1.3l.14,6.36c.01.7-.65,1.31-1.35,1.31h-25.14c-4.02-.01-7.39-2.18-8.7-5.95v-29.94c1.07-2.2,3.1-5.12,5.87-5.3l27.5-.23c.41,0,1.09.09,1.35.25s.49.79.48,1.1l-.13,6.19c0,.28-.2.93-.38,1.15-.21.25-.86.36-1.34.36l-23.06-.02c-1.07,0-2.02.85-2.02,1.87v19.5c0,.9.94,1.79,1.98,1.79Z"/>
  <path class="st2" d="M248.63,7.18H6.07c-.88,0-1.29-.72-1.29-1.33s.42-1.33,1.29-1.33h242.74c.87,0,1.3.74,1.28,1.32-.03.66-.3,1.34-1.46,1.34Z"/>
  <path class="st2" d="M253.54,4.58c.6-.15,1.36.35,1.52.89.19.65-.23,1.42-.88,1.63s-1.42-.24-1.63-.86.18-1.46.98-1.66Z"/>
</svg>